<?xml version="1.0" encoding="UTF-8"?>
<!DOCTYPE svg PUBLIC "-//W3C//DTD SVG 1.1//EN" "http://www.w3.org/Graphics/SVG/1.1/DTD/svg11.dtd">
<!-- Creator: CorelDRAW 2017 -->
<svg xmlns="http://www.w3.org/2000/svg" xml:space="preserve" width="210mm" height="297mm" version="1.1" style="shape-rendering:geometricPrecision; text-rendering:geometricPrecision; image-rendering:optimizeQuality; fill-rule:evenodd; clip-rule:evenodd"
viewBox="0 0 21000 29700"
 xmlns:xlink="http://www.w3.org/1999/xlink">
 <defs>
  <style type="text/css">
   <![CDATA[
    .fil3 {fill:#2E5B9A;fill-rule:nonzero}
    .fil8 {fill:#3E6BAB;fill-rule:nonzero}
    .fil6 {fill:#75A1DE;fill-rule:nonzero}
    .fil2 {fill:#96CFE0;fill-rule:nonzero}
    .fil15 {fill:#9CD499;fill-rule:nonzero}
    .fil14 {fill:#9EC8FF;fill-rule:nonzero}
    .fil1 {fill:#A2DFF2;fill-rule:nonzero}
    .fil7 {fill:#A86B48;fill-rule:nonzero}
    .fil10 {fill:#A8CEFF;fill-rule:nonzero}
    .fil12 {fill:#B7E1FF;fill-rule:nonzero}
    .fil5 {fill:#E38540;fill-rule:nonzero}
    .fil0 {fill:#E7F3FE;fill-rule:nonzero}
    .fil4 {fill:#F09959;fill-rule:nonzero}
    .fil9 {fill:#F0CEB4;fill-rule:nonzero}
    .fil11 {fill:#F7A96F;fill-rule:nonzero}
    .fil13 {fill:white;fill-rule:nonzero}
   ]]>
  </style>
 </defs>
 <g id="Layer_x0020_1">
  <metadata id="CorelCorpID_0Corel-Layer"/>
  <path class="fil0" d="M-3971 20349c0,0 -2997,-3717 -1199,-7253 1798,-3537 5215,-2697 10011,-6294 5822,-4366 9910,-4606 15106,-2697 2938,1079 3417,5515 8092,8272 4215,2486 779,6714 -1438,7373 -2218,659 -3716,659 -3716,659l-26855 -60z"/>
  <path class="fil1" d="M13873 12358c-748,1519 -1686,5668 -1942,5896 -256,227 -1734,1108 -1990,1535 -256,426 -142,284 -28,313 114,28 6537,57 6537,57 0,0 -739,-4405 -824,-4434 -86,-28 -1754,-3366 -1754,-3366z"/>
  <path class="fil2" d="M12809 20138c1180,8 2425,15 3110,18l-938 -5611c-501,-970 -1108,-2186 -1108,-2186 -94,191 -191,425 -290,687 -97,4215 509,5396 54,6147 -356,586 -681,848 -827,946z"/>
  <path class="fil3" d="M26147 20440l-30844 0c-131,0 -238,-106 -238,-238 0,-131 106,-238 238,-238l30844 0c132,0 238,106 238,238 0,131 -106,238 -238,238z"/>
  <path class="fil1" d="M17812 10526c1067,985 3442,1919 3442,1919 0,0 361,3334 114,5221 -246,1888 -109,2271 -109,2271l-4897 0c0,0 -657,-912 -1860,-3748 -766,-1806 -629,-3830 -629,-3830l2982 -1340 957 -492z"/>
  <path class="fil2" d="M16363 19936l4897 0c0,0 -137,-383 109,-2271 203,-1554 -6,-4089 -86,-4936l-446 -191c-1118,322 -1762,1990 -1952,3619 -127,1090 -1933,2164 -3115,2755 389,740 592,1023 592,1023z"/>
  <path class="fil3" d="M15162 7104c-590,1315 119,2533 97,2481 -21,-51 894,-2220 894,-2220l-990 -262z"/>
  <path class="fil4" d="M17399 8076l749 2736c21,77 3,160 -48,222 -176,216 -426,661 -930,804 -98,28 -219,35 -316,36 -103,0 -191,-72 -211,-173l-502 -2595 1257 -1029z"/>
  <path class="fil5" d="M17256 8305l-274 112 -841 688 452 2301c765,-477 877,-800 663,-3101z"/>
  <path class="fil4" d="M17371 9286c-165,900 -839,1509 -1504,1360 -666,-149 -983,-732 -905,-1900 62,-916 513,-1913 1179,-1763 665,149 1396,1403 1230,2304z"/>
  <path class="fil1" d="M21254 12444c990,224 1175,2236 1497,4358 38,244 227,2312 227,2312 0,0 19,379 -360,568 -324,162 -455,284 -2331,303 -1802,18 -4125,-57 -4125,-57 0,0 -21,-670 164,-998 278,-493 3127,-1200 3392,-1238 38,-531 -261,-2450 152,-3752 284,-895 590,-1364 972,-1487 128,-41 264,-43 411,-10z"/>
  <path class="fil2" d="M17182 19970c888,13 2107,26 3106,16 1876,-19 2007,-141 2331,-303 379,-189 398,-512 398,-512 0,0 -191,-2200 -227,-2444 -208,-1421 -434,-3047 -958,-3832 493,1444 572,2663 581,3183 4,264 -20,624 -97,877 -85,279 -303,455 -644,360 -682,-189 -1535,208 -1535,208 0,0 644,-227 1250,-19 606,208 1857,1592 493,2103 -417,157 -2918,284 -4697,363z"/>
  <path class="fil2" d="M16479 18994c0,0 253,-429 771,-429 518,0 480,846 404,1124 -76,278 -379,291 -379,291l-1112 -51 316 -935z"/>
  <path class="fil6" d="M15352 20173l-7008 0c-106,0 -192,-86 -192,-192l0 -55c0,-106 87,-192 192,-192l7008 0c106,0 193,86 193,192l0 55c0,106 -87,192 -193,192z"/>
  <path class="fil4" d="M16340 19045c-1086,-392 -1371,-244 -1617,-316 -606,-177 -758,-25 -1149,1049 -78,214 151,227 379,227 227,0 505,-442 593,-493 88,-51 329,-76 329,-76 0,0 -76,0 -190,227 -114,227 -252,316 -76,316 177,0 202,-291 531,-227 328,63 202,227 1023,215 821,-13 1441,0 1428,-493 -13,-467 39,-701 -404,-783 -341,-63 -847,354 -847,354z"/>
  <path class="fil7" d="M16355 19045c726,-82 513,823 437,898 -76,76 404,27 404,27 0,0 226,-363 36,-780 -190,-417 -568,-436 -568,-436l-322 177 13 114z"/>
  <path class="fil3" d="M17113 18966c-10,112 -200,188 -425,169 -226,-19 -401,-125 -391,-237 9,-112 199,-188 426,-169 226,19 401,125 391,237z"/>
  <path class="fil8" d="M17055 18910c-8,100 -179,168 -380,151 -202,-17 -358,-112 -350,-212 8,-100 179,-168 380,-151 202,17 358,112 350,212z"/>
  <path class="fil9" d="M16929 18864c-6,72 -129,121 -274,109 -145,-12 -258,-80 -252,-153 6,-72 129,-121 274,-109 145,12 258,80 252,153z"/>
  <path class="fil6" d="M8088 18784l-7060 0c-371,0 -690,-269 -757,-639l-921 -5082c-87,-479 276,-921 757,-921l7060 0c371,0 690,269 757,639l921 5082c87,479 -276,921 -757,921z"/>
  <path class="fil10" d="M8418 17882l-940 -4977c-69,-363 -393,-626 -773,-626l-7174 0c-151,175 -226,414 -180,664l953 5189c70,378 399,653 784,653l6558 0c491,0 861,-433 772,-902z"/>
  <path class="fil6" d="M6715 19465l-1340 0c-239,0 -433,-213 -433,-475l0 -2450c0,-418 -308,-757 -689,-757l-700 0c-381,0 -689,339 -689,757l0 2744c0,469 348,849 775,846l3657 -25c0,-353 -261,-639 -582,-639z"/>
  <path class="fil10" d="M2918 16594l0 2702c0,440 341,799 773,830l3569 -22c0,-58 -282,-165 -629,-165l-1450 0c-258,0 -468,-210 -468,-468l0 -2877c0,-412 -334,-745 -745,-745l-304 0c-412,0 -745,334 -745,745z"/>
  <path class="fil4" d="M10390 19154c539,-300 1199,-200 1438,100 240,300 280,499 -260,499 -539,0 -1618,40 -1798,20 -180,-20 620,-619 620,-619z"/>
  <path class="fil4" d="M11189 18974c579,-140 975,197 1458,519 420,280 504,552 40,320 -679,-340 -1078,-380 -1078,-380l-420 -460z"/>
  <path class="fil4" d="M10661 19152c-293,0 -548,-93 -755,-76 -207,17 -861,688 -758,740 7,4 15,7 24,10 155,57 330,-6 418,-147 92,-149 243,-321 418,-260 293,103 600,93 600,93l52 -361z"/>
  <path class="fil11" d="M10489 19873c-300,-120 180,-1119 340,-1119 160,0 759,480 759,480 0,0 -141,80 -619,-80 -120,-40 -220,639 -360,719 -139,80 -120,0 -120,0z"/>
  <path class="fil3" d="M14962 9272c-27,1100 347,1286 609,1435 262,149 1392,-97 1558,-369 424,-696 67,-1345 162,-1335 95,10 182,281 429,632 23,33 184,250 192,178 115,-985 628,-1291 506,-2287 -90,-734 -557,-676 -557,-676 0,0 -301,-615 -1237,-545 -627,47 -1186,291 -1833,458 -647,166 765,1632 1604,1097 839,-535 424,644 557,735 133,91 64,12 125,616 60,604 -706,998 -925,1049 -703,165 -820,49 -974,-215 -133,-230 -214,-772 -214,-772z"/>
  <path class="fil4" d="M17870 8932c-81,277 -278,456 -440,400 -162,-56 -167,-282 -148,-604 17,-291 278,-456 440,-400 162,56 229,327 148,604z"/>
  <path class="fil12" d="M2520 8187l-5997 0c-65,0 -118,-53 -118,-118l0 -2581c0,-65 53,-118 118,-118l5997 0c65,0 118,53 118,118l0 2581c0,65 -53,118 -118,118z"/>
  <path class="fil13" d="M2372 8055l-5702 0c-53,0 -95,-43 -95,-95l0 -1754c0,-53 43,-95 95,-95l5702 0c53,0 95,43 95,95l0 1754c0,53 -43,95 -95,95z"/>
  <path class="fil13" d="M-3147 5798l-138 0c-29,0 -53,-24 -53,-53l0 -114c0,-29 24,-53 53,-53l138 0c29,0 53,24 53,53l0 114c0,29 -24,53 -53,53z"/>
  <path class="fil13" d="M-2703 5798l-138 0c-29,0 -53,-24 -53,-53l0 -114c0,-29 24,-53 53,-53l138 0c29,0 53,24 53,53l0 114c0,29 -24,53 -53,53z"/>
  <path class="fil13" d="M-2259 5798l-138 0c-29,0 -53,-24 -53,-53l0 -114c0,-29 24,-53 53,-53l138 0c29,0 53,24 53,53l0 114c0,29 -24,53 -53,53z"/>
  <path class="fil12" d="M2228 6537l-3117 0c-51,0 -93,-42 -93,-93 0,-51 42,-93 93,-93l3117 0c51,0 93,42 93,93 0,51 -42,93 -93,93z"/>
  <path class="fil12" d="M-116 7975l-3117 0c-51,0 -93,-42 -93,-93 0,-51 42,-93 93,-93l3117 0c51,0 93,42 93,93 0,51 -42,93 -93,93z"/>
  <path class="fil12" d="M458 7975l-322 0c-18,0 -32,-14 -32,-32l0 -123c0,-18 14,-32 32,-32l322 0c18,0 32,14 32,32l0 123c0,18 -14,32 -32,32z"/>
  <path class="fil12" d="M944 7975l-322 0c-17,0 -32,-14 -32,-32l0 -123c0,-18 14,-32 32,-32l322 0c18,0 32,14 32,32l0 123c0,18 -14,32 -32,32z"/>
  <path class="fil12" d="M2258 6943l-5161 0c-35,0 -63,-28 -63,-63 0,-35 29,-63 63,-63l5161 0c35,0 63,29 63,63 0,35 -28,63 -63,63z"/>
  <path class="fil12" d="M2258 7216l-5161 0c-35,0 -63,-29 -63,-63 0,-35 29,-63 63,-63l5161 0c35,0 63,28 63,63 0,35 -28,63 -63,63z"/>
  <path class="fil14" d="M3929 10165l-5997 0c-65,0 -118,-53 -118,-118l0 -2581c0,-65 53,-118 118,-118l5997 0c65,0 118,53 118,118l0 2581c0,65 -53,118 -118,118z"/>
  <path class="fil13" d="M3781 10033l-5702 0c-53,0 -95,-43 -95,-95l0 -1754c0,-53 43,-95 95,-95l5702 0c53,0 95,43 95,95l0 1754c0,53 -43,95 -95,95z"/>
  <path class="fil13" d="M-1738 7775l-138 0c-29,0 -53,-24 -53,-53l0 -114c0,-29 24,-53 53,-53l138 0c29,0 53,24 53,53l0 114c0,29 -24,53 -53,53z"/>
  <path class="fil13" d="M-1294 7775l-138 0c-29,0 -53,-24 -53,-53l0 -114c0,-29 24,-53 53,-53l138 0c29,0 53,24 53,53l0 114c0,29 -24,53 -53,53z"/>
  <path class="fil13" d="M-850 7775l-138 0c-29,0 -53,-24 -53,-53l0 -114c0,-29 24,-53 53,-53l138 0c29,0 53,24 53,53l0 114c0,29 -24,53 -53,53z"/>
  <path class="fil14" d="M3636 8515l-3117 0c-51,0 -93,-42 -93,-93 0,-51 42,-93 93,-93l3117 0c51,0 93,42 93,93 0,51 -42,93 -93,93z"/>
  <path class="fil14" d="M1292 9953l-3117 0c-51,0 -93,-42 -93,-93 0,-51 42,-93 93,-93l3117 0c51,0 93,42 93,93 0,51 -42,93 -93,93z"/>
  <path class="fil14" d="M1866 9953l-323 0c-17,0 -32,-14 -32,-32l0 -123c0,-18 14,-32 32,-32l323 0c17,0 32,14 32,32l0 123c0,18 -14,32 -32,32z"/>
  <path class="fil14" d="M2353 9953l-322 0c-18,0 -32,-14 -32,-32l0 -123c0,-18 14,-32 32,-32l322 0c17,0 32,14 32,32l0 123c0,18 -14,32 -32,32z"/>
  <path class="fil14" d="M3666 8921l-5161 0c-35,0 -63,-29 -63,-63 0,-35 28,-63 63,-63l5161 0c35,0 63,29 63,63 0,35 -28,63 -63,63z"/>
  <path class="fil14" d="M3666 9194l-5161 0c-35,0 -63,-28 -63,-63 0,-35 28,-63 63,-63l5161 0c35,0 63,28 63,63 0,35 -28,63 -63,63z"/>
  <path class="fil15" d="M6264 9476c0,447 -362,809 -809,809 -447,0 -809,-362 -809,-809 0,-447 362,-809 809,-809 447,0 809,362 809,809z"/>
  <path class="fil13" d="M5375 9775l-2 0c-17,-1 -33,-8 -44,-21l-220 -250c-23,-26 -20,-64 6,-87 25,-22 64,-20 87,6l177 201 423 -414c24,-24 63,-23 87,1 24,24 23,63 -1,87l-470 460c-12,11 -27,18 -43,18z"/>
  <path class="fil14" d="M11448 5717l-5145 0c-132,0 -240,-108 -240,-240l0 -1838c0,-132 108,-240 240,-240l5145 0c132,0 240,108 240,240l0 1838c0,132 -107,240 -240,240z"/>
  <path class="fil14" d="M6743 5368l0 1279 1474 -1473c0,0 -1444,195 -1474,195z"/>
  <path class="fil13" d="M11194 5488l-4636 0c-112,0 -203,-91 -203,-203l0 -1452c0,-112 91,-203 203,-203l4636 0c112,0 203,91 203,203l0 1452c0,112 -91,203 -203,203z"/>
  <path class="fil14" d="M9101 4089l-2278 0c-55,0 -100,-45 -100,-100 0,-55 45,-100 100,-100l2278 0c55,0 100,45 100,100 0,55 -45,100 -100,100z"/>
  <path class="fil14" d="M11003 4471l-4224 0c-31,0 -56,-25 -56,-56l0 -1c0,-31 25,-56 56,-56l4224 0c31,0 55,25 55,56l0 1c0,31 -25,56 -55,56z"/>
  <path class="fil14" d="M11003 4689l-4224 0c-31,0 -56,-25 -56,-56l0 -1c0,-31 25,-56 56,-56l4224 0c31,0 55,25 55,56l0 1c0,31 -25,56 -55,56z"/>
  <path class="fil14" d="M10131 5408l-139 0c-29,0 -53,-24 -53,-53l0 -114c0,-29 24,-53 53,-53l139 0c29,0 53,24 53,53l0 114c0,29 -24,53 -53,53z"/>
  <path class="fil14" d="M10575 5408l-138 0c-30,0 -53,-24 -53,-53l0 -114c0,-29 24,-53 53,-53l138 0c29,0 53,24 53,53l0 114c0,29 -24,53 -53,53z"/>
  <path class="fil14" d="M11018 5408l-138 0c-30,0 -53,-24 -53,-53l0 -114c0,-29 24,-53 53,-53l138 0c29,0 53,24 53,53l0 114c0,29 -24,53 -53,53z"/>
  <path class="fil13" d="M-19777 25662c-260,607 268,1401 1103,2027 835,626 1341,283 1297,-209 -45,-492 -89,-1013 -283,-1326 -194,-313 -1744,-581 -1744,-581 0,0 -328,-15 -373,90z"/>
  <path class="fil13" d="M-25221 35798c1686,217 2693,804 3205,1205 77,-107 170,-239 273,-390 -355,-332 -1126,-925 -2248,-1082 -455,-63 -802,-105 -1066,-131 -62,147 -117,281 -164,398z"/>
  <path class="fil13" d="M-24834 34884c-29,66 -57,129 -84,192 1481,-59 2901,662 3260,1102 42,51 79,97 112,138 37,-57 75,-115 113,-175 -243,-239 -674,-623 -1111,-814 -894,-390 -2176,-439 -2291,-443z"/>
 </g>
</svg>
